<svg preserveAspectRatio="none" overflow="visible" style="display: block;" width="15.5625" height="15.5625" viewBox="0 0 15.5625 15.5625" fill="none" xmlns="http://www.w3.org/2000/svg">
<g id="Logo">
<path id="Vector" d="M14.5382 12.1068C15.0965 12.13 15.585 11.6894 15.5617 11.1328C15.5152 9.85724 15.2593 8.60489 14.7941 7.39893C14.2126 5.89147 13.3054 4.49997 12.1656 3.36358C11.0025 2.22719 9.63012 1.32272 8.11815 0.742928C6.90857 0.279095 5.65248 0.0239872 4.37311 0.000795594C3.81485 -0.022396 3.37288 0.464628 3.39615 1.04442C3.41941 1.60102 3.90789 2.04166 4.48942 2.06485C5.48965 2.11124 6.46661 2.31996 7.39706 2.66783C8.65316 3.13167 9.79295 3.8738 10.7467 4.82466C11.7004 5.77551 12.4447 6.88871 12.9099 8.14106C13.2589 9.06873 13.4682 10.0428 13.538 11.04C13.538 11.5966 13.9799 12.0836 14.5382 12.1068Z" fill="#FCFCFD"/>
<path id="Vector_2" d="M10.7233 12.4316C11.2815 12.5012 11.7933 12.1069 11.7933 11.5503C11.7933 10.7154 11.6537 9.88052 11.3746 9.06881C10.9791 7.95561 10.3511 6.93518 9.51369 6.07709C8.67629 5.24219 7.65281 4.59283 6.53627 4.19857C5.74539 3.92027 4.88473 3.78112 4.04733 3.75793C3.48906 3.75793 3.09363 4.26814 3.16341 4.82474C3.23319 5.38134 3.74494 5.7756 4.3032 5.79879C4.83821 5.82198 5.37322 5.93794 5.88496 6.10028C6.72236 6.37858 7.46672 6.86561 8.09477 7.49178C8.72282 8.11796 9.18804 8.86009 9.46717 9.69499C9.63 10.2052 9.7463 10.7386 9.76956 11.272C9.79283 11.8518 10.165 12.362 10.7233 12.4316Z" fill="#FCFCFD"/>
<path id="Vector_3" d="M3.95439 15.5625C6.13834 15.5625 7.90878 13.7973 7.90878 11.6199C7.90878 9.4425 6.13834 7.67734 3.95439 7.67734C1.77044 7.67734 0 9.4425 0 11.6199C0 13.7973 1.77044 15.5625 3.95439 15.5625Z" fill="#FCFCFD"/>
<path id="Vector_4" d="M3.95433 14.6347C5.62441 14.6347 6.97827 13.2849 6.97827 11.6198C6.97827 9.9547 5.62441 8.60487 3.95433 8.60487C2.28425 8.60487 0.930386 9.9547 0.930386 11.6198C0.930386 13.2849 2.28425 14.6347 3.95433 14.6347Z" fill="#E42415"/>
</g>
</svg>
